<svg width="86" height="25" fill="none" xmlns="http://www.w3.org/2000/svg"><path d="M11.225 14.15c-.167 1.55-.775 2.75-1.825 3.6C8.35 18.583 7.058 19 5.525 19H.35a.27.27 0 01-.2-.075C.1 18.858.083 18.783.1 18.7L2.175 1.8a.38.38 0 01.1-.2.31.31 0 01.225-.1h4.875c1.483 0 2.633.333 3.45 1 .817.65 1.225 1.625 1.225 2.925 0 .167-.017.433-.05.8-.217 1.717-1.025 2.933-2.425 3.65-.083.05-.092.1-.025.15 1.15.7 1.725 1.817 1.725 3.35 0 .15-.017.408-.05.775zM4.85 4c-.067 0-.117.042-.15.125l-.575 4.65c0 .083.042.125.125.125H6.5c.767 0 1.383-.208 1.85-.625.483-.433.775-1.033.875-1.8.017-.1.025-.242.025-.425 0-.65-.192-1.15-.575-1.5C8.308 4.183 7.783 4 7.1 4H4.85zm.875 12.475c.833 0 1.5-.283 2-.85s.75-1.342.75-2.325c0-.683-.183-1.208-.55-1.575-.367-.383-.883-.575-1.55-.575h-2.4c-.067 0-.117.042-.15.125L3.2 16.35c0 .083.033.125.1.125h2.425zm10.56-12c-.45 0-.818-.142-1.1-.425-.268-.283-.4-.65-.4-1.1 0-.583.182-1.067.55-1.45.382-.383.85-.575 1.4-.575.466 0 .832.142 1.1.425.282.267.424.625.424 1.075 0 .583-.192 1.075-.575 1.475-.383.383-.85.575-1.4.575zM13.384 19a.27.27 0 01-.2-.075.267.267 0 01-.05-.225l1.5-12.2a.38.38 0 01.1-.2.31.31 0 01.224-.1h2.25c.084 0 .15.033.2.1.05.05.067.117.05.2l-1.5 12.2a.437.437 0 01-.125.225.27.27 0 01-.2.075h-2.25zm5.588 0c-.184 0-.275-.1-.275-.3l2.075-16.9a.32.32 0 01.125-.2.31.31 0 01.225-.1h2.225c.083 0 .15.033.2.1.05.05.066.117.05.2l-1.1 8.95c0 .1.05.117.15.05l3.8-4.4a.55.55 0 01.4-.175h2.45c.133 0 .2.05.2.15a.311.311 0 01-.1.225l-3.275 3.875c-.034.067-.042.125-.025.175l2.275 8 .025.1c0 .067-.034.125-.1.175a.27.27 0 01-.2.075h-2.325c-.167 0-.267-.083-.3-.25l-1.475-5.975c-.017-.1-.067-.108-.15-.025l-1.8 2.025a.383.383 0 00-.05.15l-.475 3.775a.437.437 0 01-.125.225.27.27 0 01-.2.075h-2.225zm21.063-8.825c0 .883-.1 1.975-.3 3.275-.016.2-.133.3-.35.3h-6.5c-.033 0-.066.017-.1.05a.106.106 0 00-.025.075c-.016.25-.025.592-.025 1.025.017.55.184.992.5 1.325.334.333.784.5 1.35.5a2.489 2.489 0 001.275-.375c.367-.233.659-.558.875-.975.117-.183.25-.25.4-.2l1.925.425c.184.05.242.175.175.375-.466 1.033-1.125 1.833-1.975 2.4-.85.55-1.841.825-2.975.825-1.45 0-2.541-.383-3.275-1.15-.716-.783-1.075-1.867-1.075-3.25 0-.533.059-1.267.175-2.2.084-.983.225-1.842.425-2.575.317-1.217.942-2.183 1.875-2.9.934-.733 2.042-1.1 3.325-1.1 1.35 0 2.4.383 3.15 1.15.767.75 1.15 1.75 1.15 3zm-4.575-1.65c-.55 0-1.025.167-1.425.5-.383.317-.641.75-.775 1.3l-.225 1.25c0 .083.042.125.125.125h3.85c.084 0 .125-.042.125-.125.034-.6.05-1.025.05-1.275 0-.533-.158-.958-.475-1.275-.316-.333-.733-.5-1.25-.5zM46.39 19a.27.27 0 01-.2-.075.27.27 0 01-.05-.225l2.075-16.9c0-.083.033-.15.1-.2a.31.31 0 01.224-.1h2.226c.083 0 .15.033.2.1.05.05.066.117.05.2l-2.076 16.9a.437.437 0 01-.125.225.27.27 0 01-.2.075H46.39zm9.672.2c-1.3 0-2.334-.358-3.1-1.075-.75-.733-1.134-1.717-1.15-2.95-.034-.783.008-1.642.125-2.575.1-.883.266-1.758.5-2.625.333-1.217.966-2.175 1.9-2.875.95-.717 2.075-1.075 3.375-1.075 1.283 0 2.3.358 3.05 1.075.75.7 1.141 1.65 1.175 2.85a16.07 16.07 0 01-.125 2.625c-.117.95-.284 1.808-.5 2.575-.317 1.25-.95 2.242-1.9 2.975-.934.717-2.05 1.075-3.35 1.075zm.325-2.5c.533 0 1-.183 1.4-.55.4-.367.683-.85.85-1.45.183-1 .3-1.7.35-2.1.05-.333.091-.85.125-1.55l.05-.575c-.017-.583-.184-1.05-.5-1.4-.317-.367-.742-.55-1.275-.55-.55 0-1.025.175-1.425.525-.4.35-.675.825-.825 1.425-.15.633-.275 1.342-.375 2.125-.1.967-.15 1.667-.15 2.1 0 .6.158 1.083.475 1.45.316.367.75.55 1.3.55zm15.04-10.175a.38.38 0 01.1-.2.31.31 0 01.225-.1h2.225c.183 0 .275.1.275.3l-1.45 11.8c-.233 1.933-.917 3.367-2.05 4.3-1.133.95-2.667 1.425-4.6 1.425-.217 0-.575-.017-1.075-.05-.167-.017-.25-.125-.25-.325l.325-2c.033-.217.15-.308.35-.275.167.017.408.025.725.025 1.217 0 2.117-.258 2.7-.775.583-.517.942-1.35 1.075-2.5l.025-.225c.017-.05.008-.083-.025-.1s-.067 0-.1.05c-.7.733-1.6 1.1-2.7 1.1-1.05 0-1.9-.317-2.55-.95-.65-.65-.992-1.567-1.025-2.75-.033-.633.033-1.533.2-2.7.183-1.417.367-2.367.55-2.85.283-1.133.808-2.033 1.575-2.7.767-.667 1.683-1 2.75-1 1.117 0 1.95.375 2.5 1.125.033.033.067.05.1.05.033-.017.05-.05.05-.1l.075-.575zm-1.075 8.225c.117-.55.225-1.275.325-2.175.1-.717.167-1.467.2-2.25 0-.533-.15-.967-.45-1.3-.3-.333-.708-.5-1.225-.5-.517 0-.967.167-1.35.5-.383.333-.65.767-.8 1.3-.15.533-.292 1.283-.425 2.25-.1.967-.142 1.692-.125 2.175.017.517.175.95.475 1.3.317.333.733.5 1.25.5.533 0 .983-.167 1.35-.5.383-.333.642-.767.775-1.3zm9.44 4.45c-1.3 0-2.333-.358-3.1-1.075-.75-.733-1.133-1.717-1.15-2.95-.033-.783.008-1.642.125-2.575.1-.883.267-1.758.5-2.625.334-1.217.967-2.175 1.9-2.875.95-.717 2.075-1.075 3.375-1.075 1.284 0 2.3.358 3.05 1.075.75.7 1.142 1.65 1.175 2.85a15.85 15.85 0 01-.125 2.625 17.22 17.22 0 01-.5 2.575c-.316 1.25-.95 2.242-1.9 2.975-.933.717-2.05 1.075-3.35 1.075zm.325-2.5c.534 0 1-.183 1.4-.55.4-.367.683-.85.85-1.45.183-1 .3-1.7.35-2.1.05-.333.092-.85.125-1.55l.05-.575c-.017-.583-.183-1.05-.5-1.4-.317-.367-.742-.55-1.275-.55-.55 0-1.025.175-1.425.525-.4.35-.675.825-.825 1.425-.15.633-.275 1.342-.375 2.125-.1.967-.15 1.667-.15 2.1 0 .6.159 1.083.475 1.45.317.367.75.55 1.3.55z" fill="#fff"/></svg>